<?xml version="1.0" encoding="utf-8"?>
<!-- Generator: Adobe Illustrator 19.0.0, SVG Export Plug-In . SVG Version: 6.00 Build 0)  -->
<svg version="1.1" id="Layer_1" xmlns="http://www.w3.org/2000/svg" xmlns:xlink="http://www.w3.org/1999/xlink" x="0px" y="0px"
	 viewBox="0 0 66 62" style="enable-background:new 0 0 66 62;" xml:space="preserve">
<style type="text/css">
	.st0{fill:none;stroke:#3A96A5;stroke-width:2;stroke-linecap:round;stroke-linejoin:round;stroke-miterlimit:10;}
</style>
<g>
	<path class="st0" d="M21.7,28.3c-6.2-6.2-6.2-16.4,0-22.6s16.4-6.2,22.6,0s6.2,16.4,0,22.6"/>
	<g>
		<polyline class="st0" points="9,25 1,17 9,9 		"/>
		<line class="st0" x1="13" y1="17" x2="1" y2="17"/>
	</g>
	<g>
		<polyline class="st0" points="57,25 65,17 57,9 		"/>
		<line class="st0" x1="53" y1="17" x2="65" y2="17"/>
	</g>
	<path class="st0" d="M53,41v-4c0-5.3-8-5.3-8,0v-4c0-5.3-8-5.3-8,0V17c0-5.3-8-5.3-8,0c0,11.2,0,17,0,31c-3.7-3.7-7.3-8.7-10.8-5.2
		c-1.6,1.6-1.6,4.1,0,5.7l11.3,11.3c0.9,0.9,2,1.2,3.2,1.1c1.2,0.1,23.1,0,24.3,0c2.2,0,4-1.7,4-3.9c0-5.7,0-10.5,0-16
		C61,35.7,53,35.7,53,41z"/>
</g>
</svg>
